<svg width="562" height="444" viewBox="0 0 562 444" fill="none" xmlns="http://www.w3.org/2000/svg">
<path d="M232.02 387.158L214.441 351.095C203.77 329.158 184.686 312.632 161.4 305.267L152.233 302.413L92.5821 303.767L77.8529 308.272C59.8217 313.83 44.4988 325.851 35.03 342.08L3.47793 395.575C0.17064 401.283 -0.881444 408.043 0.769599 414.356C3.77481 425.772 14.1446 433.59 25.8633 433.288C59.0717 432.538 122.03 431.184 122.931 430.132C123.983 429.08 186.343 429.684 213.686 429.981C221.353 430.132 228.415 425.772 231.718 418.861C236.827 408.944 236.827 397.226 232.02 387.158ZM43.8946 395.121L68.3894 364.47L83.4154 403.538L43.8946 395.121ZM163.051 403.538L177.775 361.767L197.462 393.47L163.051 403.538Z" fill="#0D4FB1"/>
<path d="M175.223 254.783C175.223 255.601 175.181 256.424 175.103 257.242C175.02 258.059 174.9 258.872 174.738 259.679C174.582 260.481 174.379 261.278 174.139 262.064C173.905 262.851 173.629 263.627 173.311 264.382C172.999 265.143 172.645 265.887 172.259 266.611C171.874 267.335 171.452 268.038 170.993 268.721C170.535 269.403 170.046 270.064 169.525 270.7C169.004 271.335 168.452 271.945 167.874 272.523C167.29 273.106 166.681 273.658 166.046 274.179C165.41 274.7 164.754 275.189 164.072 275.648C163.384 276.101 162.681 276.523 161.957 276.913C161.233 277.299 160.488 277.648 159.733 277.965C158.973 278.278 158.202 278.554 157.415 278.794C156.629 279.033 155.832 279.231 155.025 279.393C154.217 279.554 153.405 279.674 152.587 279.752C151.77 279.835 150.952 279.872 150.129 279.872C149.306 279.872 148.488 279.835 147.671 279.752C146.853 279.674 146.04 279.554 145.233 279.393C144.426 279.231 143.629 279.033 142.842 278.794C142.056 278.554 141.285 278.278 140.525 277.965C139.764 277.648 139.025 277.299 138.301 276.913C137.577 276.523 136.874 276.101 136.186 275.648C135.504 275.189 134.848 274.7 134.212 274.179C133.577 273.658 132.967 273.106 132.384 272.523C131.806 271.945 131.254 271.335 130.733 270.7C130.212 270.064 129.723 269.403 129.264 268.721C128.806 268.038 128.384 267.335 127.999 266.611C127.613 265.887 127.259 265.143 126.947 264.382C126.629 263.627 126.353 262.851 126.118 262.064C125.879 261.278 125.676 260.481 125.52 259.679C125.358 258.872 125.238 258.059 125.155 257.242C125.077 256.424 125.035 255.601 125.035 254.783C125.035 253.96 125.077 253.137 125.155 252.32C125.238 251.502 125.358 250.689 125.52 249.887C125.676 249.08 125.879 248.283 126.118 247.497C126.353 246.71 126.629 245.939 126.947 245.179C127.259 244.419 127.613 243.679 127.999 242.95C128.384 242.226 128.806 241.523 129.264 240.84C129.723 240.158 130.212 239.497 130.733 238.861C131.254 238.226 131.806 237.617 132.384 237.038C132.967 236.455 133.577 235.903 134.212 235.382C134.848 234.861 135.504 234.372 136.186 233.919C136.874 233.46 137.577 233.038 138.301 232.653C139.025 232.262 139.764 231.913 140.525 231.596C141.285 231.283 142.056 231.007 142.842 230.768C143.629 230.528 144.426 230.33 145.233 230.169C146.04 230.007 146.853 229.887 147.671 229.809C148.488 229.726 149.306 229.689 150.129 229.689C150.952 229.689 151.77 229.726 152.587 229.809C153.405 229.887 154.217 230.007 155.025 230.169C155.832 230.33 156.629 230.528 157.415 230.768C158.202 231.007 158.973 231.283 159.733 231.596C160.488 231.913 161.233 232.262 161.957 232.653C162.681 233.038 163.384 233.46 164.072 233.919C164.754 234.372 165.41 234.861 166.046 235.382C166.681 235.903 167.29 236.455 167.874 237.038C168.452 237.617 169.004 238.226 169.525 238.861C170.046 239.497 170.535 240.158 170.993 240.84C171.452 241.523 171.874 242.226 172.259 242.95C172.645 243.679 172.999 244.419 173.311 245.179C173.629 245.939 173.905 246.71 174.139 247.497C174.379 248.283 174.582 249.08 174.738 249.887C174.9 250.689 175.02 251.502 175.103 252.32C175.181 253.137 175.223 253.96 175.223 254.783Z" fill="black"/>
<path d="M157.467 209.064C157.697 210.398 157.863 211.736 157.957 213.085C158.056 214.439 158.082 215.788 158.046 217.142C158.004 218.496 157.9 219.845 157.723 221.194C157.546 222.538 157.306 223.871 156.994 225.194C156.686 226.517 156.311 227.819 155.874 229.111C155.431 230.398 154.926 231.663 154.363 232.903C153.796 234.142 153.165 235.356 152.478 236.533C151.79 237.715 151.046 238.861 150.244 239.976C149.436 241.085 148.582 242.153 147.671 243.184C146.764 244.215 145.801 245.2 144.796 246.137C143.785 247.075 142.733 247.96 141.639 248.799C140.54 249.637 139.405 250.424 138.233 251.153C137.056 251.882 135.848 252.554 134.608 253.168C133.369 253.783 132.098 254.335 130.801 254.83C129.504 255.325 128.191 255.752 126.853 256.121C125.514 256.486 124.16 256.788 122.796 257.028C121.426 257.267 120.051 257.434 118.665 257.543C117.285 257.648 115.9 257.689 114.514 257.658C113.129 257.632 111.744 257.538 110.369 257.382C108.994 257.22 107.629 256.996 106.28 256.705C104.926 256.413 103.592 256.059 102.28 255.642C100.962 255.22 99.6758 254.741 98.4102 254.194C97.1446 253.653 95.905 253.049 94.7019 252.387C93.4987 251.726 92.3321 251.007 91.2019 250.231C90.0717 249.46 88.9831 248.632 87.9362 247.752C86.8894 246.871 85.8894 245.944 84.9362 244.965C83.9831 243.991 83.0873 242.97 82.2383 241.903C81.3894 240.84 80.5925 239.741 79.8581 238.595C79.1185 237.455 78.4414 236.283 77.8217 235.075C77.2019 233.871 76.6498 232.637 76.155 231.371C75.6602 230.111 75.2331 228.83 74.8685 227.528C74.5039 226.22 74.2019 224.903 73.9727 223.569C73.7383 222.236 73.5769 220.898 73.4779 219.543C73.3842 218.194 73.3529 216.845 73.3946 215.491C73.431 214.137 73.5404 212.783 73.7175 211.439C73.8894 210.095 74.1342 208.762 74.4414 207.439C74.7539 206.116 75.1237 204.809 75.5664 203.523C76.0092 202.236 76.5092 200.97 77.0769 199.731C77.6446 198.491 78.2696 197.278 78.9623 196.095C79.6498 194.918 80.3946 193.767 81.1967 192.658C81.9987 191.549 82.8581 190.476 83.7644 189.45C84.6758 188.418 85.6342 187.434 86.6446 186.496C87.6498 185.559 88.7019 184.668 89.8008 183.83C90.8946 182.996 92.03 182.21 93.2071 181.481C94.3842 180.752 95.5873 180.08 96.8321 179.465C98.0717 178.851 99.3425 178.293 100.634 177.804C101.931 177.309 103.249 176.882 104.587 176.512C105.926 176.148 107.275 175.84 108.645 175.606C110.014 175.366 111.389 175.194 112.77 175.09C114.155 174.986 115.54 174.944 116.926 174.97C118.311 175.002 119.691 175.09 121.066 175.252C122.441 175.413 123.806 175.637 125.16 175.929C126.509 176.22 127.842 176.575 129.16 176.991C130.473 177.413 131.764 177.892 133.03 178.434C134.296 178.981 135.53 179.58 136.733 180.246C137.936 180.908 139.108 181.627 140.238 182.398C141.369 183.174 142.457 184.002 143.504 184.882C144.551 185.762 145.546 186.689 146.499 187.668C147.452 188.642 148.353 189.663 149.202 190.726C150.051 191.793 150.842 192.892 151.582 194.033C152.316 195.174 152.999 196.351 153.613 197.554C154.233 198.762 154.79 199.996 155.285 201.257C155.78 202.523 156.207 203.804 156.572 205.106C156.936 206.408 157.233 207.731 157.467 209.064Z" fill="black"/>
<path d="M516.311 174.241C516.311 174.241 546.811 174.543 551.467 220.371C556.129 266.2 559.431 333.064 559.431 333.064L519.462 336.522L501.431 220.22L516.311 174.241Z" fill="#35A0CD"/>
<path d="M285.66 344.788C276.046 340.127 271.686 328.71 275.593 318.793L309.551 233.444C314.811 219.918 322.624 213.908 334.348 216.163C345.468 218.418 354.181 229.387 352.228 240.507L313.608 334.116C309.103 345.236 296.332 350.043 285.66 344.788Z" fill="#DB7157"/>
<path d="M362.145 170.184C362.145 170.184 336.15 168.231 317.217 209.554C298.134 251.325 289.566 279.122 289.566 279.122L316.915 326.153L372.061 223.976L362.145 170.184Z" fill="#35A0CD"/>
<path d="M230.52 181.908L210.384 189.419L269.582 323.601C273.942 338.325 284.462 351.846 297.832 344.335C308.952 338.023 313.311 324.2 307.452 312.783L230.52 181.908Z" fill="#DB7157"/>
<path d="M229.915 177.549L228.566 172.288C226.759 165.226 223.306 158.768 218.499 153.356L210.082 143.742C208.129 141.486 204.525 141.486 202.571 143.893C200.915 145.846 200.764 148.7 201.967 150.95L208.582 162.825L168.608 138.632C166.655 137.429 164.103 138.179 163.202 140.132L162.603 141.486C161.848 143.137 162.301 145.091 163.801 146.143L190.098 163.424L157.191 147.799C155.238 146.747 152.681 147.648 151.78 149.752L151.332 150.804C150.582 152.606 151.332 154.559 152.983 155.611L181.384 171.085L157.342 164.023C155.087 163.273 152.681 164.924 152.384 167.33V167.783C152.233 169.434 153.134 170.934 154.634 171.69L179.129 180.705L165.457 178.903C162.749 178.148 160.196 180.554 160.644 183.257C160.946 184.611 161.848 185.663 163.051 186.111L225.108 208.049L229.613 193.778C231.118 188.518 231.269 182.955 229.915 177.549Z" fill="#DB7157"/>
<path d="M212.035 184.158C211.884 184.158 211.733 184.158 211.582 184.007C204.373 172.892 207.978 162.825 208.129 162.674C208.28 162.372 208.431 162.372 208.728 162.372C209.03 162.523 209.03 162.674 209.03 162.971C209.03 163.122 205.577 172.741 212.488 183.559C212.634 183.71 212.634 184.007 212.337 184.158C212.186 184.158 212.186 184.158 212.035 184.158Z" fill="black"/>
<path d="M521.416 174.846L434.869 143.59L348.322 175.142C343.811 176.799 341.556 181.606 343.061 186.111C352.676 214.663 372.061 344.184 369.504 388.96H501.431C503.989 344.335 517.363 214.361 526.827 185.814C528.181 181.304 525.926 176.497 521.416 174.846Z" fill="#35A0CD"/>
<path d="M362.145 170.184C362.145 170.184 377.02 194.976 433.368 194.976C489.712 194.976 506.993 169.736 506.993 169.736L434.868 143.741L362.145 170.184Z" fill="#DB7157"/>
<path d="M506.093 256.434C505.942 256.434 505.942 256.434 505.79 256.434C505.192 256.283 504.889 255.684 505.04 255.08L514.655 220.221C514.806 219.622 515.405 219.32 516.009 219.471C516.608 219.622 516.91 220.221 516.759 220.825L507.145 255.684C506.994 256.132 506.54 256.434 506.093 256.434Z" fill="black"/>
<path d="M361.243 245.314C360.79 245.314 360.342 245.012 360.191 244.564L353.577 222.924C353.431 222.325 353.728 221.726 354.332 221.575C354.931 221.424 355.53 221.726 355.681 222.325L362.295 243.96C362.446 244.564 362.144 245.163 361.54 245.314C361.394 245.163 361.394 245.314 361.243 245.314Z" fill="black"/>
<path d="M478.442 45.7728C480.999 73.7208 457.108 98.6635 428.41 101.216C399.707 103.773 374.468 83.1843 372.061 55.3874C369.504 27.4395 390.843 2.79888 419.395 0.241586C448.093 -2.46154 476.041 17.8249 478.442 45.7728Z" fill="black"/>
<path d="M477.541 39.9131C477.541 39.9131 480.848 57.1891 487.009 66.2048C496.327 79.7308 505.791 96.2568 504.739 112.939L365.598 129.314C365.598 129.314 362.296 102.569 374.015 89.6475C385.733 76.8766 374.166 47.8766 374.166 47.8766L477.541 39.9131Z" fill="black"/>
<path d="M409.327 111.585L410.676 163.273L456.207 156.512L448.244 78.377L409.327 111.585Z" fill="#DB7157"/>
<mask id="mask0_448_394" style="mask-type:luminance" maskUnits="userSpaceOnUse" x="407" y="107" width="32" height="31">
<path d="M438.488 107.168H407.821V137.835H438.488V107.168Z" fill="white"/>
</mask>
<g mask="url(#mask0_448_394)">
<mask id="mask1_448_394" style="mask-type:luminance" maskUnits="userSpaceOnUse" x="409" y="108" width="29" height="29">
<path d="M409.155 108.502H437.155V136.819H409.155V108.502Z" fill="white"/>
</mask>
<g mask="url(#mask1_448_394)">
<path d="M409.926 136.528C409.926 136.528 433.967 136.976 436.223 108.58L409.473 120.299L409.926 136.528Z" fill="black"/>
</g>
</g>
<path d="M378.072 29.8455C374.613 33.2987 372.66 37.8091 372.212 42.6164C370.707 56.7414 367.551 84.2362 373.863 98.6632C381.978 117.293 398.655 128.111 423.598 121.049C423.598 121.049 453.65 113.387 456.358 75.5226C460.561 13.6164 407.223 0.543448 378.072 29.8455Z" fill="#DB7157"/>
<path d="M379.873 74.9235C379.722 76.7256 378.222 78.2256 376.269 78.0746C374.467 77.9288 372.962 76.4235 373.113 74.4704C373.264 72.6683 374.764 71.1631 376.717 71.3142C378.67 71.4652 380.024 72.9704 379.873 74.9235Z" fill="black"/>
<path d="M407.822 69.8142C407.671 71.6163 406.171 73.1163 404.218 72.9704C402.264 72.8194 400.91 71.3142 401.061 69.361C401.212 67.559 402.712 66.0538 404.665 66.2048C406.468 66.5069 407.822 68.0069 407.822 69.8142Z" fill="black"/>
<path d="M390.691 89.4966C390.54 89.4966 390.54 89.4966 390.394 89.4966L384.832 89.1945C384.53 89.1945 384.233 89.0435 384.082 88.7466C383.931 88.4445 383.78 88.2935 383.931 87.9914L385.582 79.5799C385.733 78.9758 386.186 78.6789 386.785 78.8299C387.389 78.9758 387.686 79.4289 387.535 80.0278L386.035 87.3924L390.394 87.6945C390.993 87.6945 391.446 88.1424 391.295 88.7466C391.446 89.0435 391.144 89.3455 390.691 89.4966Z" fill="black"/>
<path d="M394.301 57.0381C394.598 59.2933 396.853 60.7985 399.108 60.3454C402.561 59.5954 407.52 58.6943 412.478 59.1422C414.285 59.2933 415.936 58.0901 416.238 56.137C416.389 54.3349 415.186 52.986 413.53 52.3818C410.077 51.3297 404.665 49.6787 397.004 52.8349C395.202 53.5849 393.999 55.236 394.301 57.0381Z" fill="black"/>
<path d="M380.473 59.8975C380.624 62.1475 379.572 64.2516 378.072 64.5537C375.816 64.8558 372.363 65.7568 369.358 67.71C368.155 68.46 366.952 67.71 366.499 66.2048C366.051 64.7048 366.65 62.9027 367.551 61.8506C369.504 59.7464 372.66 56.5902 378.072 56.8923C379.275 56.8923 380.176 58.0902 380.473 59.8975Z" fill="black"/>
<path d="M388.738 97.0068L406.77 91.1475C406.77 91.1475 409.473 98.512 400.457 101.366C391.592 104.22 388.738 97.0068 388.738 97.0068Z" fill="#DAF6F9"/>
<path d="M447.488 77.0225C447.488 77.0225 423.748 64.4027 432.764 35.5537C432.764 35.5537 464.467 42.012 459.811 46.3714C455.155 50.7308 447.488 77.0225 447.488 77.0225Z" fill="black"/>
<path d="M439.978 43.3663C439.978 43.3663 413.233 47.5746 363.947 50.2777C363.947 50.2777 363.045 10.0121 410.525 1.59545C454.551 -6.21704 471.681 31.7986 464.322 66.658L445.535 73.4184L439.978 43.3663Z" fill="black"/>
<path d="M473.187 76.2728C473.187 77.3665 473.077 78.4551 472.864 79.528C472.65 80.6009 472.332 81.6426 471.916 82.6582C471.494 83.6686 470.983 84.627 470.374 85.5384C469.765 86.4499 469.072 87.2936 468.301 88.0697C467.525 88.8405 466.681 89.5332 465.775 90.1426C464.864 90.752 463.9 91.2624 462.89 91.6842C461.879 92.1009 460.832 92.4186 459.759 92.6322C458.687 92.8457 457.603 92.9551 456.504 92.9551C455.41 92.9551 454.327 92.8457 453.254 92.6322C452.176 92.4186 451.134 92.1009 450.124 91.6842C449.114 91.2624 448.15 90.752 447.239 90.1426C446.327 89.5332 445.489 88.8405 444.713 88.0697C443.937 87.2936 443.249 86.4499 442.64 85.5384C442.03 84.627 441.515 83.6686 441.098 82.6582C440.676 81.6426 440.364 80.6009 440.15 79.528C439.937 78.4551 439.827 77.3665 439.827 76.2728C439.827 75.179 439.937 74.0957 440.15 73.0176C440.364 71.9447 440.676 70.903 441.098 69.8926C441.515 68.877 442.03 67.9186 442.64 67.0072C443.249 66.0957 443.937 65.2572 444.713 64.4811C445.489 63.7051 446.327 63.0124 447.239 62.4082C448.15 61.7988 449.114 61.2832 450.124 60.8665C451.134 60.4447 452.176 60.127 453.254 59.9134C454.327 59.6999 455.41 59.5957 456.504 59.5957C457.603 59.5957 458.687 59.6999 459.759 59.9134C460.832 60.127 461.879 60.4447 462.89 60.8665C463.9 61.2832 464.864 61.7988 465.775 62.4082C466.681 63.0124 467.525 63.7051 468.301 64.4811C469.072 65.2572 469.765 66.0957 470.374 67.0072C470.983 67.9186 471.494 68.877 471.916 69.8926C472.332 70.903 472.65 71.9447 472.864 73.0176C473.077 74.0957 473.187 75.179 473.187 76.2728Z" fill="#DB7157"/>
<path d="M448.993 83.0333H448.842C448.394 82.8874 447.941 82.4343 448.092 81.9812C448.691 77.476 450.644 74.1687 453.498 72.0645C458.009 68.9135 463.42 69.8145 463.717 69.9656C464.17 70.1114 464.618 70.5645 464.467 71.0124C464.321 71.4656 463.868 71.9187 463.415 71.7676C463.415 71.7676 458.457 70.8666 454.702 73.5697C452.149 75.3718 450.644 78.226 450.045 82.2833C449.894 82.5853 449.441 82.8874 448.993 83.0333Z" fill="black"/>
<mask id="mask2_448_394" style="mask-type:luminance" maskUnits="userSpaceOnUse" x="351" y="385" width="168" height="59">
<path d="M351.822 385.835H518.488V443.564H351.822V385.835Z" fill="white"/>
</mask>
<g mask="url(#mask2_448_394)">
<path d="M369.504 385.955L352.525 443.658H518.264L501.134 385.955H369.504Z" fill="#0D4FB1"/>
</g>
<path d="M444.337 170.788C441.629 166.731 437.275 163.575 432.462 162.522C427.056 161.319 421.494 162.371 416.087 163.424C409.176 164.778 402.264 166.127 395.353 167.632C390.692 168.533 385.884 169.585 381.525 171.84C377.322 174.09 373.561 177.851 372.66 182.356C370.41 178.299 365.9 175.897 361.244 174.991C356.582 174.241 351.775 174.694 347.119 175.293C341.41 176.043 335.697 176.647 329.988 177.397C325.931 177.851 320.973 178.903 319.619 182.809C320.525 183.408 321.572 183.71 322.478 184.309C326.983 187.465 331.494 190.47 336.749 192.272C342.16 194.075 347.869 194.377 353.577 194.226C367.103 194.075 380.624 191.825 393.999 189.267C411.728 185.96 431.264 182.955 444.337 170.788Z" fill="#DAF6F9"/>
<path d="M314.811 179.351L365.301 185.361L380.176 182.955L450.644 157.564L467.025 259.439L396.551 285.585L380.624 288.137L331.191 281.528L314.811 179.351Z" fill="#92868B"/>
<path d="M365.29 185.403L380.123 183.022L396.556 285.543L381.717 287.924L365.29 185.403Z" fill="#0D4FB1"/>
<path d="M559.431 333.064L436.071 278.221L420.446 293.997L515.707 376.34C534.342 392.419 563.191 377.695 561.087 353.2L559.431 333.064Z" fill="#DB7157"/>
<path d="M429.009 228.486L442.832 250.872L447.942 248.319C449.744 247.418 452.15 247.72 453.499 249.22C455.004 250.726 455.155 253.127 453.952 254.783L436.822 278.97L420.296 293.997C408.275 282.127 407.973 274.012 409.775 269.054C409.473 268.455 409.327 268.002 409.176 267.403L402.114 248.47C401.213 246.668 401.811 244.564 403.614 243.663C404.817 242.908 406.921 242.611 409.176 246.215L406.921 242.611C406.02 240.809 406.619 238.554 408.572 237.502C410.228 236.601 412.478 237.502 414.134 239.455L412.78 236.752C411.728 234.799 412.629 232.241 414.884 231.34C416.838 230.59 419.093 231.34 420.145 233.142L422.546 237.049L421.046 232.241C420.145 229.986 421.197 227.434 423.598 226.533C425.551 225.632 427.806 226.684 429.009 228.486Z" fill="#DB7157"/>
<path d="M429.457 250.273C429.311 250.273 429.16 250.121 429.009 249.97L420.895 235.996C420.744 235.7 420.895 235.398 421.046 235.398C421.348 235.246 421.645 235.398 421.645 235.549L429.759 249.523C429.91 249.825 429.759 250.121 429.608 250.121C429.608 250.273 429.457 250.273 429.457 250.273Z" fill="black"/>
<path d="M421.045 253.278C420.894 253.278 420.743 253.127 420.592 252.975L413.983 240.054C413.832 239.903 413.983 239.606 414.134 239.455C414.285 239.304 414.582 239.455 414.733 239.606L421.348 252.528C421.493 252.679 421.348 252.975 421.197 253.127C421.197 253.278 421.197 253.278 421.045 253.278Z" fill="black"/>
<path d="M413.983 256.283C413.832 256.283 413.681 256.132 413.53 255.981L408.274 245.012C408.123 244.715 408.274 244.564 408.426 244.413C408.571 244.262 408.873 244.413 409.024 244.564L414.285 255.533C414.436 255.835 414.285 255.981 414.134 256.132C414.134 256.283 413.983 256.283 413.983 256.283Z" fill="black"/>
<path d="M152.832 230.288C152.832 230.288 158.395 224.278 163.952 229.236C172.52 236.898 163.051 255.231 150.879 248.773L152.832 230.288Z" fill="#DB7157"/>
<path d="M154.035 243.059C153.733 242.908 153.587 242.762 153.733 242.611C156.291 234.345 160.348 234.647 160.499 234.647C160.645 234.647 160.796 234.798 160.796 235.095C160.796 235.246 160.645 235.397 160.348 235.397C160.348 235.397 156.89 235.095 154.488 242.762C154.337 243.059 154.186 243.059 154.035 243.059Z" fill="black"/>
<path d="M86.7172 242.309C86.7172 242.309 78.4568 238.101 74.8474 244.715C69.2901 254.783 84.4672 268.757 93.7797 258.689L86.7172 242.309Z" fill="#DB7157"/>
<path d="M88.8217 254.33C88.6706 254.33 88.6706 254.33 88.5248 254.179C83.5665 247.721 80.4102 249.221 80.4102 249.221C80.2592 249.372 79.9571 249.221 79.9571 249.07C79.8061 248.919 79.9571 248.622 80.1081 248.622C80.2592 248.471 83.7123 246.82 89.1238 253.877C89.2748 254.028 89.2748 254.33 89.1238 254.481C88.9727 254.33 88.9727 254.33 88.8217 254.33Z" fill="black"/>
<path d="M111.66 272.21L108.806 301.512H136.306L132.4 271.908L111.66 272.21Z" fill="#DB7157"/>
<mask id="mask3_448_394" style="mask-type:luminance" maskUnits="userSpaceOnUse" x="109" y="271" width="29" height="23">
<path d="M137.155 271.168H109.155V293.835H137.155V271.168Z" fill="white"/>
</mask>
<g mask="url(#mask3_448_394)">
<mask id="mask4_448_394" style="mask-type:luminance" maskUnits="userSpaceOnUse" x="110" y="271" width="26" height="22">
<path d="M110.488 271.793H135.822V292.502H110.488V271.793Z" fill="white"/>
</mask>
<g mask="url(#mask4_448_394)">
<path d="M111.363 275.215C112.264 275.668 135.103 291.892 135.103 291.892L132.4 271.908L111.363 275.215Z" fill="black"/>
</g>
</g>
<path d="M81.311 222.325C81.311 222.325 90.0245 283.632 127.29 277.169C167.561 270.106 150.28 210.304 150.28 210.304C150.28 210.304 145.321 182.809 110.759 188.82C78.9047 194.377 81.311 222.325 81.311 222.325Z" fill="#DB7157"/>
<path d="M110.91 235.851C111.212 237.502 110.16 239.002 108.509 239.304C106.853 239.606 105.353 238.554 105.051 236.898C104.749 235.247 105.801 233.747 107.457 233.445C109.108 233.143 110.613 234.195 110.91 235.851Z" fill="black"/>
<path d="M140.212 230.742C140.514 232.393 139.462 233.893 137.806 234.195C136.155 234.497 134.65 233.445 134.353 231.794C134.051 230.137 135.103 228.637 136.754 228.335C138.41 228.033 139.91 229.085 140.212 230.742Z" fill="black"/>
<path d="M126.087 248.918L122.634 249.522C122.332 249.522 122.03 249.371 122.03 249.069L121.129 244.262C121.129 243.96 121.28 243.663 121.582 243.663C121.879 243.663 122.181 243.814 122.181 244.111L122.931 248.319L125.936 247.871C126.238 247.871 126.54 248.017 126.54 248.319C126.54 248.621 126.389 248.772 126.087 248.918Z" fill="black"/>
<path d="M127.29 219.471C127.29 219.471 126.988 222.924 132.098 222.174C136.004 221.575 140.962 221.726 143.369 221.877C144.718 221.877 146.072 221.122 146.525 220.07C146.822 219.169 146.671 218.268 145.77 217.82C144.119 216.768 138.41 214.664 133.603 215.414C127.442 216.315 127.29 219.471 127.29 219.471Z" fill="black"/>
<path d="M111.363 222.325C111.363 222.325 112.863 225.481 107.608 226.533C103.696 227.283 99.0402 229.085 96.936 229.986C95.7329 230.439 94.2329 230.288 93.4829 229.387C92.8788 228.637 92.7277 227.736 93.3319 226.981C94.535 225.481 99.1913 221.575 103.999 220.674C110.16 219.471 111.363 222.325 111.363 222.325Z" fill="black"/>
<mask id="mask5_448_394" style="mask-type:luminance" maskUnits="userSpaceOnUse" x="117" y="251" width="18" height="11">
<path d="M134.488 251.168H117.155V261.835H134.488V251.168Z" fill="white"/>
</mask>
<g mask="url(#mask5_448_394)">
<mask id="mask6_448_394" style="mask-type:luminance" maskUnits="userSpaceOnUse" x="117" y="252" width="17" height="9">
<path d="M117.274 252.502H133.155V260.502H117.274V252.502Z" fill="white"/>
</mask>
<g mask="url(#mask6_448_394)">
<path d="M132.847 253.58C132.847 253.58 133.452 258.84 126.389 260.038C119.478 261.241 118.124 256.132 118.124 256.132C125.488 251.023 132.847 253.58 132.847 253.58Z" fill="#BA4157"/>
</g>
</g>
<path d="M125.634 256.882C120.379 257.789 116.321 256.434 116.17 256.283C115.868 256.132 115.717 255.835 115.868 255.684C116.019 255.382 116.321 255.231 116.473 255.382C116.624 255.382 125.337 258.539 133.9 252.377C134.202 252.226 134.504 252.226 134.65 252.528C134.801 252.83 134.801 253.127 134.504 253.278C131.499 255.382 128.342 256.434 125.634 256.882Z" fill="black"/>
<path d="M92.8789 303.617L124.134 297.002L152.384 302.111C152.384 302.111 146.671 313.382 122.931 313.231C99.1914 313.08 92.8789 303.617 92.8789 303.617Z" fill="#DB7157"/>
<path d="M77.4051 221.121C77.4051 221.121 102.046 209.705 100.994 186.564C100.994 186.564 72.4468 185.96 77.4051 221.121Z" fill="black"/>
<path d="M94.6812 187.314C94.6812 187.314 105.952 216.616 154.186 206.549C154.186 206.549 146.374 179.95 121.28 179.804C96.3374 179.653 94.6812 187.314 94.6812 187.314Z" fill="black"/>
<path d="M112.113 386.559L93.634 388.96L92.1287 384.903C91.5298 383.403 90.1756 382.351 88.6704 382.2C87.1704 382.048 85.8162 382.95 85.6652 384.455L83.2642 405.038L84.9152 420.965C97.2381 422.319 101.446 418.861 102.795 415.559C103.249 415.408 103.551 415.408 103.999 415.257L117.071 410.601C118.426 410.298 119.176 408.944 118.577 407.595C118.275 406.543 117.222 405.189 114.368 405.642L117.374 405.189C118.722 404.887 119.478 403.538 119.025 402.033C118.577 400.684 116.92 399.778 114.967 399.778L117.071 399.33C118.577 399.028 119.327 397.377 118.577 395.726C117.972 394.22 116.321 393.47 114.816 393.621L111.514 394.069L114.665 392.72C116.321 392.267 116.92 390.465 116.019 388.809C115.42 387.158 113.618 386.408 112.113 386.559Z" fill="#DB7157"/>
<path d="M23.311 431.637L102.795 417.663C110.311 416.309 117.972 417.809 124.285 421.866L125.035 421.418C131.499 417.663 139.009 416.46 146.222 417.809L225.41 432.986L23.311 431.637Z" fill="#DAF6F9"/>
<mask id="mask7_448_394" style="mask-type:luminance" maskUnits="userSpaceOnUse" x="14" y="429" width="220" height="15">
<path d="M14.4883 429.835H233.155V443.564H14.4883V429.835Z" fill="white"/>
</mask>
<g mask="url(#mask7_448_394)">
<path d="M15.7954 430.585H232.92V443.658H15.7954V430.585Z" fill="#35A0CD"/>
</g>
<mask id="mask8_448_394" style="mask-type:luminance" maskUnits="userSpaceOnUse" x="14" y="428" width="221" height="16">
<path d="M14.4883 428.502H234.488V443.564H14.4883V428.502Z" fill="white"/>
</mask>
<g mask="url(#mask8_448_394)">
<mask id="mask9_448_394" style="mask-type:luminance" maskUnits="userSpaceOnUse" x="-539" y="-222" width="1641" height="922">
<path d="M1101.09 -221.631H-538.112V699.969H1101.09V-221.631Z" fill="black" fill-opacity="0.56"/>
</mask>
<g mask="url(#mask9_448_394)">
<mask id="mask10_448_394" style="mask-type:luminance" maskUnits="userSpaceOnUse" x="14" y="428" width="221" height="17">
<path d="M234.488 428.502H14.4883V444.502H234.488V428.502Z" fill="white"/>
</mask>
<g mask="url(#mask10_448_394)">
<mask id="mask11_448_394" style="mask-type:luminance" maskUnits="userSpaceOnUse" x="15" y="429" width="219" height="15">
<path d="M15.2437 429.835H233.155V443.564H15.2437V429.835Z" fill="white"/>
</mask>
<g mask="url(#mask11_448_394)">
<path d="M15.7959 430.585H232.921V443.658H15.7959V430.585Z" fill="#DB7157"/>
</g>
</g>
</g>
</g>
<mask id="mask12_448_394" style="mask-type:luminance" maskUnits="userSpaceOnUse" x="117" y="428" width="15" height="16">
<path d="M117.155 428.502H131.821V443.564H117.155V428.502Z" fill="white"/>
</mask>
<g mask="url(#mask12_448_394)">
<mask id="mask13_448_394" style="mask-type:luminance" maskUnits="userSpaceOnUse" x="-539" y="-222" width="1641" height="922">
<path d="M1101.09 -221.631H-538.112V699.969H1101.09V-221.631Z" fill="black" fill-opacity="0.31"/>
</mask>
<g mask="url(#mask13_448_394)">
<mask id="mask14_448_394" style="mask-type:luminance" maskUnits="userSpaceOnUse" x="117" y="428" width="15" height="17">
<path d="M131.821 428.502H117.155V444.502H131.821V428.502Z" fill="white"/>
</mask>
<g mask="url(#mask14_448_394)">
<mask id="mask15_448_394" style="mask-type:luminance" maskUnits="userSpaceOnUse" x="117" y="429" width="15" height="15">
<path d="M117.274 429.835H131.347V443.564H117.274V429.835Z" fill="white"/>
</mask>
<g mask="url(#mask15_448_394)">
<path d="M117.972 430.585H131.045V443.658H117.972V430.585Z" fill="black"/>
</g>
</g>
</g>
</g>
<path d="M69.1394 364.918C68.9883 364.918 68.6862 364.773 68.6862 364.622L61.7748 342.382C61.629 342.08 61.7748 341.783 62.0769 341.783C62.379 341.632 62.6758 341.783 62.6758 342.08L69.5925 364.319C69.7383 364.622 69.5925 364.918 69.2904 364.918C69.1394 364.918 69.1394 364.918 69.1394 364.918Z" fill="black"/>
<path d="M177.926 362.216C177.478 362.064 177.327 361.768 177.478 361.617L182.733 344.486C182.884 344.184 183.186 344.033 183.337 344.184C183.634 344.335 183.785 344.637 183.634 344.788L178.379 361.913C178.379 362.064 178.077 362.216 177.926 362.216Z" fill="black"/>
<path d="M122.483 415.559C122.181 415.559 122.03 415.408 122.03 415.106C121.879 414.804 122.181 414.507 122.332 414.507L163.051 402.934C163.353 402.783 163.65 403.085 163.65 403.236C163.801 403.538 163.504 403.835 163.353 403.835L122.483 415.559Z" fill="black"/>
</svg>
