<svg width="503" height="445" viewBox="0 0 503 445" fill="none" xmlns="http://www.w3.org/2000/svg">
<mask id="mask0_448_398" style="mask-type:luminance" maskUnits="userSpaceOnUse" x="15" y="311" width="472" height="134">
<path d="M15.4355 311.625H486.102V444.781H15.4355V311.625Z" fill="white"/>
</mask>
<g mask="url(#mask0_448_398)">
<path d="M328.29 313.583L307.779 445.062H294.342L311.378 311.667L328.29 313.583ZM401.826 311.667L417.545 445.062H433.139L420.665 311.667H401.826ZM452.092 313.583L472.607 445.062H486.045L469.008 311.667L452.092 313.583ZM82.0085 311.667L69.5293 445.062H85.123L100.842 311.667H82.0085ZM33.6595 311.667L16.748 445.062H30.1803L50.696 313.583L33.6595 311.667Z" fill="black"/>
</g>
<path d="M142.347 411.234L145.467 419.63L182.295 430.547L188.295 428.151L158.061 414.474L142.347 411.234Z" fill="white"/>
<path d="M266.389 408.114L245.998 412.791L223.806 424.187V431.265L245.639 423.468L263.873 414.474L266.389 408.114Z" fill="white"/>
<path d="M301.66 435.224L311.259 431.625L337.17 431.99L342.566 433.906L333.811 437.026H305.259L301.66 435.224Z" fill="white"/>
<path d="M374.238 400.797L345.925 412.073L316.415 425.63L318.457 431.266L350.722 414.115L373.879 402.115L374.238 400.797Z" fill="white"/>
<path d="M395.832 150.433H481.842C495.16 150.433 504.998 161.469 502.358 173.224L474.889 292.11V302.188C474.889 308.427 469.368 313.464 462.53 313.464H351.806V270.636L428.342 265.24L395.832 150.433Z" fill="white"/>
<path d="M353.363 369.724L364.639 393.838L352.524 400.437L338.967 376.802L353.363 369.724Z" fill="white"/>
<path d="M362.483 388.683C362.483 388.683 356.243 398.756 347.728 392.881L323.853 426.349L374.238 400.797L362.483 388.683Z" fill="black"/>
<mask id="mask1_448_398" style="mask-type:luminance" maskUnits="userSpaceOnUse" x="323" y="411" width="22" height="16">
<path d="M323.853 411.625H344.769V426.469H323.853V411.625Z" fill="white"/>
</mask>
<g mask="url(#mask1_448_398)">
<mask id="mask2_448_398" style="mask-type:luminance" maskUnits="userSpaceOnUse" x="323" y="388" width="52" height="39">
<path d="M362.483 388.682C362.483 388.682 356.243 398.755 347.728 392.88L323.853 426.349L374.238 400.797L362.483 388.682Z" fill="white"/>
</mask>
<g mask="url(#mask2_448_398)">
<path d="M324.571 413.151C324.571 413.151 338.009 408.833 344.728 424.792L320.134 429.588L324.571 413.151Z" fill="white"/>
</g>
</g>
<path d="M323.832 426.302L374.243 400.786L376.467 405.172L326.056 430.692L323.832 426.302Z" fill="white"/>
<path d="M348.087 403.318C347.967 403.318 347.727 403.318 347.607 403.198C344.368 401.636 341.727 401.276 341.727 401.276C341.248 401.276 340.889 400.797 340.889 400.318C341.008 399.839 341.488 399.479 341.967 399.479C342.087 399.479 344.967 399.839 348.446 401.516C348.925 401.756 349.045 402.235 348.805 402.719C348.686 403.078 348.446 403.198 348.087 403.318Z" fill="white"/>
<path d="M344.967 407.396C344.847 407.396 344.608 407.396 344.488 407.276C341.248 405.714 338.608 405.354 338.608 405.354C338.128 405.354 337.769 404.875 337.769 404.396C337.889 403.917 338.368 403.558 338.847 403.558C338.967 403.558 341.847 403.917 345.326 405.594C345.806 405.834 345.925 406.318 345.686 406.797C345.686 407.157 345.326 407.396 344.967 407.396Z" fill="white"/>
<path d="M341.967 411.474C341.847 411.474 341.608 411.474 341.488 411.354C338.248 409.792 335.608 409.433 335.608 409.433C335.128 409.433 334.769 408.953 334.769 408.474C334.889 407.995 335.368 407.636 335.847 407.636C335.967 407.636 338.847 407.995 342.326 409.672C342.806 409.917 342.925 410.396 342.686 410.875C342.566 411.354 342.207 411.474 341.967 411.474Z" fill="white"/>
<path d="M337.17 396.839L336.931 423.469L323.134 424.188L321.212 397.078L337.17 396.839Z" fill="white"/>
<path d="M337.29 417.953C337.29 417.953 327.212 424.307 322.175 415.312L286.186 435.104L342.686 433.906L337.29 417.953Z" fill="black"/>
<mask id="mask3_448_398" style="mask-type:luminance" maskUnits="userSpaceOnUse" x="286" y="422" width="21" height="14">
<path d="M286.103 422.292H306.103V435.625H286.103V422.292Z" fill="white"/>
</mask>
<g mask="url(#mask3_448_398)">
<mask id="mask4_448_398" style="mask-type:luminance" maskUnits="userSpaceOnUse" x="286" y="415" width="57" height="21">
<path d="M337.29 417.954C337.29 417.954 327.212 424.308 322.176 415.313L286.186 435.105L342.686 433.907L337.29 417.954Z" fill="white"/>
</mask>
<g mask="url(#mask4_448_398)">
<path d="M292.42 423.589C292.42 423.589 306.337 425.511 305.618 442.787L281.384 436.547L292.42 423.589Z" fill="white"/>
</g>
</g>
<path d="M286.149 435.25L342.639 434.031L342.748 438.948L286.254 440.172L286.149 435.25Z" fill="white"/>
<path d="M317.972 424.792C317.852 424.792 317.732 424.672 317.613 424.552C315.337 421.672 313.175 420.349 313.175 420.349C312.696 420.11 312.576 419.511 312.936 419.151C313.175 418.792 313.774 418.672 314.253 418.912C314.373 419.032 316.774 420.469 319.175 423.589C319.534 423.948 319.415 424.552 318.936 424.912C318.576 424.912 318.212 424.912 317.972 424.792Z" fill="white"/>
<path d="M313.415 427.187C313.295 427.187 313.175 427.067 313.055 426.948C310.774 424.067 308.618 422.75 308.618 422.75C308.139 422.51 308.019 421.911 308.378 421.552C308.618 421.192 309.217 421.073 309.696 421.312C309.816 421.432 312.217 422.869 314.613 425.989C314.977 426.349 314.858 426.948 314.373 427.307C314.014 427.307 313.654 427.307 313.415 427.187Z" fill="white"/>
<path d="M308.858 429.589C308.738 429.589 308.618 429.469 308.498 429.349C306.217 426.469 304.061 425.151 304.061 425.151C303.576 424.912 303.457 424.308 303.821 423.948C304.061 423.589 304.66 423.469 305.139 423.709C305.259 423.828 307.66 425.271 310.175 428.391C310.535 428.75 310.415 429.349 309.936 429.709C309.457 429.709 309.097 429.709 308.858 429.589Z" fill="white"/>
<path d="M372.92 239.089C372.92 240.047 372.92 240.886 372.92 241.844C372.555 256 370.878 270.157 369.8 284.313C368.477 292.469 365.118 295.11 362.482 295.709C362.362 295.948 362.123 296.188 362.003 296.427L356.123 304.709C355.644 305.547 354.56 305.907 353.602 305.547C352.883 305.308 352.045 304.589 352.883 302.667L352.045 304.589C351.565 305.547 350.362 305.907 349.284 305.427C348.326 305.068 347.967 303.865 348.326 302.667L347.607 303.985C347.123 304.948 345.685 305.308 344.607 304.709C343.644 304.224 343.284 303.026 343.763 302.188L344.607 300.266L344.727 300.026L343.164 302.068C342.565 303.146 341.128 303.386 339.925 302.787C338.967 302.188 338.607 300.99 339.086 300.026L344.368 288.032L341.607 286.714C340.649 286.235 340.045 285.271 340.17 284.193C340.289 283.115 341.248 282.391 342.446 282.391L358.039 282.151C354.081 252.641 350.602 223.25 347.847 193.62C347.727 186.901 353.842 181.386 361.039 181.386C361.279 181.386 361.519 181.386 361.758 181.386C368.477 181.745 368.477 188.703 369.92 194.818C372.92 208.974 373.159 223.729 372.92 239.089Z" fill="#FFAD65"/>
<path d="M344.368 300.869C344.128 300.75 344.128 300.625 344.128 300.505L347.363 293.552C347.363 293.427 347.608 293.427 347.727 293.427C347.847 293.427 347.847 293.672 347.847 293.791L344.608 300.75C344.488 300.869 344.488 300.869 344.368 300.869Z" fill="black"/>
<path d="M348.446 302.547C348.207 302.427 348.207 302.307 348.207 302.187L351.686 295.828C351.806 295.708 351.925 295.708 352.045 295.708C352.165 295.828 352.165 295.948 352.165 296.067L348.686 302.427C348.686 302.547 348.566 302.547 348.446 302.547Z" fill="black"/>
<path d="M352.405 303.385C352.165 303.265 352.165 303.146 352.165 303.026L355.165 297.75C355.285 297.63 355.405 297.63 355.524 297.63C355.644 297.75 355.644 297.869 355.644 297.989L352.644 303.265C352.644 303.385 352.524 303.385 352.405 303.385Z" fill="black"/>
<path d="M431.581 252.761V282.032C431.581 295.349 420.545 305.907 407.347 305.427L357.8 303.625L351.685 350.891L361.878 381.844L347.003 386.761L344.248 408.115L316.534 405.953L316.055 345.615L298.899 310.703C293.623 300.026 298.42 287.193 309.696 282.032L321.451 276.756C326.373 270.636 333.451 266.318 341.607 265.24L431.581 252.761Z" fill="#51CCDE"/>
<path d="M366.081 159.792C366.081 159.792 348.326 170.349 344.967 199.021L370.279 212.933L366.081 159.792Z" fill="#0D4FB1"/>
<path d="M400.029 150.792C408.785 151.51 417.305 153.432 425.462 156.672C428.581 157.87 432.18 159.432 434.097 162.427C436.618 166.391 434.696 170.828 434.456 175.146L432.061 263.318H359.722L357.081 178.026C356.482 168.906 361.878 160.63 370.16 157.63C379.514 154.391 390.91 150.672 395.831 150.312L400.029 150.792Z" fill="#0D4FB1"/>
<path d="M358.524 207.656C358.279 207.656 358.16 207.536 358.16 207.297L357.561 181.385C357.561 181.146 357.68 181.026 357.92 180.906C358.16 180.906 358.279 181.026 358.404 181.266L359.003 207.177C359.003 207.417 358.764 207.656 358.524 207.656Z" fill="black"/>
<path d="M374.358 156.312C374.358 156.312 387.436 151.151 395.832 150.552C395.832 150.552 407.227 151.031 415.144 153.432C415.144 153.432 410.826 162.672 390.67 164.229C370.639 165.666 374.358 156.312 374.358 156.312Z" fill="#FFAD65"/>
<path d="M40.9773 133.521H20.946C7.62831 133.521 -2.21023 145.755 0.430393 158.708L27.9044 289.953V301.109C27.9044 307.942 33.42 313.463 40.2585 313.463H150.988V266.198L74.446 260.317L40.9773 133.521Z" fill="white"/>
<path d="M195.493 415.313L218.285 404.875L266.389 408.115L202.691 437.865L195.493 415.313Z" fill="black"/>
<mask id="mask5_448_398" style="mask-type:luminance" maskUnits="userSpaceOnUse" x="202" y="407" width="70" height="38">
<path d="M202.103 407.625H271.436V444.781H202.103V407.625Z" fill="white"/>
</mask>
<g mask="url(#mask5_448_398)">
<path d="M220.566 434.026C218.404 434.985 217.806 437.505 219.003 439.667L206.889 445.063L202.332 436.906L266.389 408.115L270.946 416.271L226.681 436.068C225.483 433.906 222.722 433.068 220.566 434.026Z" fill="white"/>
</g>
<path d="M231.602 412.073C231.363 412.073 231.123 411.953 231.003 411.833C230.759 411.474 230.759 410.994 231.123 410.755L237.358 405.474C237.717 405.234 238.196 405.234 238.441 405.593C238.68 405.953 238.68 406.437 238.321 406.677L232.081 411.953C231.962 411.953 231.842 412.073 231.602 412.073Z" fill="white"/>
<path d="M222.363 411.833C222.123 411.833 221.883 411.714 221.764 411.594C221.524 411.234 221.524 410.755 221.883 410.516L228.123 405.234C228.482 404.995 228.962 404.995 229.201 405.354C229.441 405.714 229.441 406.193 229.081 406.437L222.842 411.714C222.722 411.714 222.602 411.833 222.363 411.833Z" fill="white"/>
<path d="M206.05 372.964L183.253 383.521L195.852 416.391L218.644 405.834L206.05 372.964Z" fill="#FFAD65"/>
<path d="M129.873 389.401L153.623 396.12L188.295 428.151L120.753 409.552L129.873 389.401Z" fill="black"/>
<path d="M136.592 418.193C134.311 417.594 132.149 418.911 131.67 421.193L118.957 417.594L120.993 408.953L188.175 428.271L186.253 436.906L139.826 423.589C140.311 421.193 138.868 418.792 136.592 418.193Z" fill="white"/>
<path d="M168.019 409.552H159.863C159.384 409.552 159.144 409.192 159.144 408.833C159.144 408.354 159.384 408.114 159.863 408.114H168.019C168.498 408.114 168.738 408.474 168.738 408.833C168.858 409.312 168.498 409.552 168.019 409.552Z" fill="white"/>
<path d="M161.181 403.677H153.024C152.665 403.677 152.306 403.318 152.306 402.958C152.306 402.594 152.665 402.234 153.024 402.234H161.181C161.66 402.234 161.905 402.594 161.905 402.958C162.024 403.318 161.66 403.677 161.181 403.677Z" fill="white"/>
<path d="M165.743 365.526L141.628 358.808L129.514 390.24L153.623 396.839L165.743 365.526Z" fill="#FFAD65"/>
<path d="M173.42 251.083L193.571 260.317C207.009 266.437 212.889 281.791 206.53 294.63L160.103 389.401L131.071 379.802L173.42 251.083Z" fill="#0D4FB1"/>
<path d="M47.4565 225.292V260.318C47.4565 276.276 60.6545 288.99 76.6076 288.391L135.988 286.235L187.092 401.396L216.363 386.282L186.613 268.479C183.014 253.485 170.66 242.203 155.425 240.167L47.4565 225.292Z" fill="#0D4FB1"/>
<path d="M171.378 366.729C171.259 366.729 171.019 366.609 171.019 366.489L150.623 320.541C150.503 320.302 150.623 320.062 150.863 319.943C151.108 319.823 151.347 319.943 151.467 320.182L171.858 366.125C171.977 366.37 171.858 366.609 171.618 366.729C171.498 366.729 171.498 366.729 171.378 366.729Z" fill="black"/>
<path d="M197.17 313.943C196.931 313.943 196.811 313.823 196.691 313.583L178.936 253.963C178.816 253.724 179.056 253.484 179.176 253.359C179.415 253.24 179.655 253.484 179.775 253.604L197.53 313.224C197.65 313.463 197.41 313.703 197.29 313.823C197.29 313.943 197.29 313.943 197.17 313.943Z" fill="black"/>
<path d="M173.779 254.563L226.441 230.808L135.269 218.573L87.7637 241.365L173.779 254.563Z" fill="white"/>
<path d="M173.779 256.12C173.66 256.12 173.66 256.12 173.54 256.12L87.5243 242.927C86.8055 242.807 86.3263 242.323 86.2065 241.604C86.0868 240.885 86.4461 240.286 87.0451 239.927L134.55 217.135C134.79 217.01 135.149 216.891 135.509 217.01L226.681 229.25C227.404 229.37 228.003 229.849 228.003 230.568C228.123 231.286 227.764 232.01 227.04 232.25L174.378 256C174.259 256.12 174.019 256.12 173.779 256.12ZM93.1649 240.646L173.66 253L220.806 231.771L135.628 220.37L93.1649 240.646Z" fill="black"/>
<path d="M173.899 220.131C174.139 221.453 173.3 222.771 171.977 223.011L169.342 223.37C171.977 223.011 172.696 224.209 172.821 225.172C173.061 226.49 172.217 227.688 171.019 227.927L158.665 232.25C158.306 232.37 157.941 232.49 157.582 232.61C155.904 235.61 151.587 238.724 140.79 237.526L86.0868 228.052L82.1284 199.979L141.628 223.011L146.545 204.657C146.904 203.339 148.227 202.5 149.545 202.62C150.863 202.74 152.066 203.698 152.306 205.016L153.144 208.735L170.061 206.459C171.378 206.219 172.821 207.058 173.3 208.375C173.899 209.938 172.941 211.495 171.498 211.974L168.498 213.172L171.498 212.693C172.821 212.573 174.139 213.292 174.498 214.615C174.977 216.052 174.019 217.615 172.576 217.854L170.66 218.334C172.217 218.094 173.66 218.813 173.899 220.131Z" fill="#FFAD65"/>
<path d="M159.384 214.734C159.264 214.734 159.144 214.615 159.144 214.495C159.144 214.375 159.264 214.135 159.384 214.135L169.222 212.453C169.342 212.453 169.582 212.573 169.582 212.693C169.582 212.813 169.462 213.052 169.342 213.052L159.384 214.734C159.503 214.734 159.503 214.734 159.384 214.734Z" fill="black"/>
<path d="M161.061 220.49C160.941 220.49 160.821 220.37 160.821 220.25C160.821 220.131 160.941 219.891 161.061 219.891L170.181 217.854C170.3 217.854 170.54 217.974 170.54 218.094C170.54 218.214 170.42 218.453 170.3 218.453L161.061 220.49Z" fill="black"/>
<path d="M162.503 225.292C162.383 225.292 162.264 225.172 162.264 225.052C162.264 224.932 162.383 224.693 162.503 224.693L170.18 222.891C170.3 222.891 170.54 223.01 170.54 223.13C170.54 223.25 170.42 223.49 170.3 223.49L162.503 225.292Z" fill="black"/>
<path d="M162.504 163.39L236.759 128.599L243.597 137.838C243.597 137.838 202.571 166.989 174.139 184.744C169.582 187.619 161.061 181.864 158.665 177.067C156.384 172.744 158.186 165.786 162.504 163.39Z" fill="#FFAD65"/>
<path d="M233.519 133.037C233.519 133.037 236.16 123.443 245.998 119.485L251.993 110.964C252.957 109.646 254.634 109.287 256.071 110.005C257.634 110.844 258.233 112.766 257.514 114.323L254.873 119.964L256.675 118.761C259.55 116.844 261.712 114.084 262.79 110.724L265.91 101.25C266.269 100.167 267.108 99.3283 268.191 99.2086C270.347 98.8492 272.149 100.771 271.67 102.927L269.149 115.886C268.191 120.922 265.191 125.24 260.873 127.761L237.717 141.318L233.519 133.037Z" fill="#FFAD65"/>
<path d="M76.2481 85.1719L51.1752 90.8125C38.9408 93.5729 30.0606 104.125 29.4616 116.604L28.0241 145.995C27.3054 160.151 29.4616 174.427 34.1387 187.74L47.4564 227.089L129.394 236.448L132.628 216.531L135.628 152.714L155.904 178.385C161.904 185.943 172.576 187.62 180.618 182.344L228.722 150.672L218.644 135.198L173.66 155.354L143.91 105.927C139.107 98.0104 131.191 92.6094 122.076 91.0521L97.6023 86.974L76.2481 85.1719Z" fill="#51CCDE"/>
<path d="M132.628 217.011H132.509L80.8055 201.058C76.2482 199.62 72.769 196.141 71.4513 191.584L61.3732 157.151C61.2534 156.912 61.493 156.672 61.7325 156.552C61.9721 156.433 62.2117 156.672 62.3315 156.912L72.4096 191.339C73.6075 195.542 76.8471 198.901 81.1648 200.219L132.873 216.172C133.113 216.292 133.233 216.532 133.113 216.771C132.993 216.891 132.873 217.011 132.628 217.011Z" fill="black"/>
<path d="M71.4514 38.0263C71.4514 38.0263 67.2535 34.1878 63.6545 38.0263C58.1337 43.9065 65.8108 55.9013 73.8472 50.7451L71.4514 38.0263Z" fill="#FFAD65"/>
<path d="M71.6909 47.7448C71.5711 47.7448 71.3315 47.625 71.3315 47.5052C69.4096 42.8281 65.6909 42.5885 65.4513 42.5885C65.2117 42.5885 64.9721 42.3437 65.0919 42.1041C65.2117 41.8645 65.3315 41.625 65.5711 41.7448C65.8107 41.7448 70.0086 42.1041 72.17 47.2656C72.2898 47.5052 72.17 47.7448 71.9305 47.8645C71.8107 47.625 71.8107 47.7448 71.6909 47.7448Z" fill="black"/>
<path d="M115.238 42.1041C115.238 42.1041 119.915 39.1093 122.795 43.427C127.113 50.0259 117.633 60.3384 110.795 53.9843L115.238 42.1041Z" fill="#FFAD65"/>
<path d="M113.555 51.2237C113.435 51.2237 113.435 51.2237 113.316 51.104C113.076 50.9842 113.076 50.7446 113.196 50.505C116.196 45.8227 120.154 46.1873 120.274 46.1873C120.514 46.1873 120.633 46.4269 120.633 46.6665C120.633 46.906 120.394 47.1456 120.154 47.0258C120.034 47.0258 116.555 46.6665 113.915 50.9842C113.795 51.2237 113.675 51.2237 113.555 51.2237Z" fill="black"/>
<path d="M121.592 29.0313C121.592 29.9115 121.55 30.7865 121.467 31.6667C121.379 32.5417 121.248 33.4115 121.076 34.2708C120.905 35.1354 120.691 35.9896 120.436 36.8333C120.181 37.6719 119.884 38.5 119.55 39.3125C119.212 40.125 118.837 40.9219 118.42 41.6979C118.009 42.474 117.556 43.2292 117.066 43.9583C116.576 44.6927 116.056 45.3958 115.493 46.0781C114.936 46.7604 114.347 47.4115 113.722 48.0313C113.103 48.6563 112.451 49.2448 111.769 49.8021C111.092 50.3594 110.384 50.8854 109.649 51.375C108.92 51.8646 108.165 52.3125 107.389 52.7292C106.613 53.1458 105.821 53.5208 105.004 53.8542C104.191 54.1927 103.363 54.4896 102.524 54.7448C101.681 55 100.826 55.2135 99.9671 55.3854C99.1025 55.5573 98.2327 55.6875 97.3577 55.7708C96.4827 55.8594 95.6025 55.901 94.7223 55.901C93.8421 55.901 92.9671 55.8594 92.0869 55.7708C91.2119 55.6875 90.3421 55.5573 89.4827 55.3854C88.6182 55.2135 87.764 55 86.9202 54.7448C86.0817 54.4896 85.2536 54.1927 84.4411 53.8542C83.6286 53.5208 82.8317 53.1458 82.0557 52.7292C81.2796 52.3125 80.5244 51.8646 79.7952 51.375C79.0609 50.8854 78.3577 50.3594 77.6755 49.8021C76.9932 49.2448 76.3421 48.6563 75.7223 48.0313C75.0973 47.4115 74.5088 46.7604 73.9515 46.0781C73.3942 45.3958 72.8682 44.6927 72.3786 43.9583C71.889 43.2292 71.4411 42.474 71.0244 41.6979C70.6077 40.9219 70.2327 40.125 69.8942 39.3125C69.5609 38.5 69.264 37.6719 69.0088 36.8333C68.7536 35.9896 68.54 35.1354 68.3682 34.2708C68.1963 33.4115 68.0661 32.5417 67.9827 31.6667C67.8942 30.7865 67.8525 29.9115 67.8525 29.0313C67.8525 28.151 67.8942 27.2708 67.9827 26.3958C68.0661 25.5208 68.1963 24.651 68.3682 23.7865C68.54 22.9271 68.7536 22.0729 69.0088 21.2292C69.264 20.3854 69.5609 19.5625 69.8942 18.7448C70.2327 17.9323 70.6077 17.1406 71.0244 16.3646C71.4411 15.5885 71.889 14.8333 72.3786 14.099C72.8682 13.3698 73.3942 12.6615 73.9515 11.9844C74.5088 11.3021 75.0973 10.651 75.7223 10.0313C76.3421 9.40625 76.9932 8.81771 77.6755 8.26042C78.3577 7.69792 79.0609 7.17708 79.7952 6.6875C80.5244 6.19792 81.2796 5.74479 82.0557 5.33333C82.8317 4.91667 83.6286 4.54167 84.4411 4.20313C85.2536 3.86979 86.0817 3.57292 86.9202 3.31771C87.764 3.0625 88.6182 2.84896 89.4827 2.67708C90.3421 2.50521 91.2119 2.375 92.0869 2.28646C92.9671 2.20313 93.8421 2.15625 94.7223 2.15625C95.6025 2.15625 96.4827 2.20313 97.3577 2.28646C98.2327 2.375 99.1025 2.50521 99.9671 2.67708C100.826 2.84896 101.681 3.0625 102.524 3.31771C103.363 3.57292 104.191 3.86979 105.004 4.20313C105.821 4.54167 106.613 4.91667 107.389 5.33333C108.165 5.74479 108.92 6.19792 109.649 6.6875C110.384 7.17708 111.092 7.69792 111.769 8.26042C112.451 8.81771 113.103 9.40625 113.722 10.0313C114.347 10.651 114.936 11.3021 115.493 11.9844C116.056 12.6615 116.576 13.3698 117.066 14.099C117.556 14.8333 118.009 15.5885 118.42 16.3646C118.837 17.1406 119.212 17.9323 119.55 18.7448C119.884 19.5625 120.181 20.3854 120.436 21.2292C120.691 22.0729 120.905 22.9271 121.076 23.7865C121.248 24.651 121.379 25.5208 121.467 26.3958C121.55 27.2708 121.592 28.151 121.592 29.0313Z" fill="#FFAD65"/>
<path d="M121.592 29.0313C121.592 29.9115 121.55 30.7865 121.467 31.6667C121.379 32.5417 121.248 33.4115 121.076 34.2708C120.905 35.1354 120.691 35.9896 120.436 36.8333C120.181 37.6719 119.884 38.5 119.55 39.3125C119.212 40.125 118.837 40.9219 118.42 41.6979C118.009 42.474 117.556 43.2292 117.066 43.9583C116.576 44.6927 116.056 45.3958 115.493 46.0781C114.936 46.7604 114.347 47.4115 113.722 48.0313C113.103 48.6563 112.451 49.2448 111.769 49.8021C111.092 50.3594 110.384 50.8854 109.649 51.375C108.92 51.8646 108.165 52.3125 107.389 52.7292C106.613 53.1458 105.821 53.5208 105.004 53.8542C104.191 54.1927 103.363 54.4896 102.524 54.7448C101.681 55 100.826 55.2135 99.9671 55.3854C99.1025 55.5573 98.2327 55.6875 97.3577 55.7708C96.4827 55.8594 95.6025 55.901 94.7223 55.901C93.8421 55.901 92.9671 55.8594 92.0869 55.7708C91.2119 55.6875 90.3421 55.5573 89.4827 55.3854C88.6182 55.2135 87.764 55 86.9202 54.7448C86.0817 54.4896 85.2536 54.1927 84.4411 53.8542C83.6286 53.5208 82.8317 53.1458 82.0557 52.7292C81.2796 52.3125 80.5244 51.8646 79.7952 51.375C79.0609 50.8854 78.3577 50.3594 77.6755 49.8021C76.9932 49.2448 76.3421 48.6563 75.7223 48.0313C75.0973 47.4115 74.5088 46.7604 73.9515 46.0781C73.3942 45.3958 72.8682 44.6927 72.3786 43.9583C71.889 43.2292 71.4411 42.474 71.0244 41.6979C70.6077 40.9219 70.2327 40.125 69.8942 39.3125C69.5609 38.5 69.264 37.6719 69.0088 36.8333C68.7536 35.9896 68.54 35.1354 68.3682 34.2708C68.1963 33.4115 68.0661 32.5417 67.9827 31.6667C67.8942 30.7865 67.8525 29.9115 67.8525 29.0313C67.8525 28.151 67.8942 27.2708 67.9827 26.3958C68.0661 25.5208 68.1963 24.651 68.3682 23.7865C68.54 22.9271 68.7536 22.0729 69.0088 21.2292C69.264 20.3854 69.5609 19.5625 69.8942 18.7448C70.2327 17.9323 70.6077 17.1406 71.0244 16.3646C71.4411 15.5885 71.889 14.8333 72.3786 14.099C72.8682 13.3698 73.3942 12.6615 73.9515 11.9844C74.5088 11.3021 75.0973 10.651 75.7223 10.0313C76.3421 9.40625 76.9932 8.81771 77.6755 8.26042C78.3577 7.69792 79.0609 7.17708 79.7952 6.6875C80.5244 6.19792 81.2796 5.74479 82.0557 5.33333C82.8317 4.91667 83.6286 4.54167 84.4411 4.20313C85.2536 3.86979 86.0817 3.57292 86.9202 3.31771C87.764 3.0625 88.6182 2.84896 89.4827 2.67708C90.3421 2.50521 91.2119 2.375 92.0869 2.28646C92.9671 2.20313 93.8421 2.15625 94.7223 2.15625C95.6025 2.15625 96.4827 2.20313 97.3577 2.28646C98.2327 2.375 99.1025 2.50521 99.9671 2.67708C100.826 2.84896 101.681 3.0625 102.524 3.31771C103.363 3.57292 104.191 3.86979 105.004 4.20313C105.821 4.54167 106.613 4.91667 107.389 5.33333C108.165 5.74479 108.92 6.19792 109.649 6.6875C110.384 7.17708 111.092 7.69792 111.769 8.26042C112.451 8.81771 113.103 9.40625 113.722 10.0313C114.347 10.651 114.936 11.3021 115.493 11.9844C116.056 12.6615 116.576 13.3698 117.066 14.099C117.556 14.8333 118.009 15.5885 118.42 16.3646C118.837 17.1406 119.212 17.9323 119.55 18.7448C119.884 19.5625 120.181 20.3854 120.436 21.2292C120.691 22.0729 120.905 22.9271 121.076 23.7865C121.248 24.651 121.379 25.5208 121.467 26.3958C121.55 27.2708 121.592 28.151 121.592 29.0313Z" fill="black"/>
<path d="M80.4463 59.2607L76.7275 85.1722L88.8421 95.1305L98.0817 87.0941L97.9619 60.0993L80.4463 59.2607Z" fill="#FFAD65"/>
<path d="M79.9668 62.8594C80.5658 63.2187 98.0814 76.776 98.0814 76.776V63.099L79.9668 62.8594Z" fill="black"/>
<path d="M73.1282 26.151C73.1282 26.151 66.4095 65.1406 90.7637 67.776C116.915 70.5365 117.035 29.9896 117.035 29.9896C117.035 29.9896 118.597 9.35416 96.6439 7.43749C76.4876 5.7552 73.1282 26.151 73.1282 26.151Z" fill="#FFAD65"/>
<path d="M73.7275 14.276C73.7275 14.276 92.2015 10.7968 115.478 17.875C115.478 17.875 114.274 5.87496 95.5609 4.31766C76.9671 2.64058 73.7275 14.276 73.7275 14.276Z" fill="black"/>
<path d="M92.8053 37.9067C92.6855 38.9901 91.722 39.589 90.6438 39.4692C89.5657 39.3494 88.9615 38.3859 89.0865 37.3078C89.2063 36.2296 90.1647 35.6307 91.2428 35.7505C92.3209 35.8703 93.0449 36.8286 92.8053 37.9067Z" fill="black"/>
<path d="M111.639 41.2661C111.519 42.3494 110.556 42.9484 109.478 42.8286C108.4 42.7088 107.801 41.7453 107.92 40.6671C108.04 39.589 108.999 38.9901 110.077 39.1098C111.16 39.3494 111.879 40.3078 111.639 41.2661Z" fill="black"/>
<path d="M97.8418 45.5833C97.6022 45.5833 97.4824 45.3437 97.4824 45.1041C97.4824 44.8645 97.722 44.625 97.9616 44.625H99.3991C99.6387 44.625 99.8783 44.3854 100.003 44.1458L99.0397 40.9062C98.9199 40.6666 99.1595 40.427 99.3991 40.3073C99.6387 40.1875 99.8783 40.427 100.003 40.6666L100.962 44.026V44.1458C100.962 44.9843 100.363 45.5833 99.5189 45.5833H97.8418Z" fill="black"/>
<path d="M105.519 30.5887C105.519 30.5887 104.561 32.6303 107.8 33.1095C110.316 33.5887 113.196 34.6668 114.519 35.1511C115.238 35.5105 116.196 35.2709 116.675 34.7866C117.035 34.3074 117.035 33.8282 116.675 33.3491C115.957 32.3907 112.957 29.9897 109.957 29.5105C106.358 28.7918 105.519 30.5887 105.519 30.5887Z" fill="black"/>
<path d="M95.6808 29.0315C95.6808 29.0315 95.9204 31.1877 92.686 30.7085C90.1652 30.3492 87.0454 30.469 85.6079 30.5888C84.7641 30.5888 83.9256 30.2294 83.686 29.5106C83.4464 29.0315 83.5662 28.4325 84.1652 28.0731C85.1235 27.3492 88.7225 26.0315 91.7225 26.5106C95.4412 27.1096 95.6808 29.0315 95.6808 29.0315Z" fill="black"/>
<path d="M93.1651 48.5837L102.28 50.0264C103.722 50.266 105.04 51.2244 105.639 52.5421L105.879 53.0212C106.118 53.6254 105.639 54.3441 104.92 54.2244L89.3265 51.7035C88.7224 51.5837 88.363 50.865 88.7224 50.3858C89.8057 49.0629 91.4828 48.3441 93.1651 48.5837Z" fill="black"/>
<path d="M77.3262 14.9948C77.3262 14.9948 78.8887 20.2708 72.7689 26.75L71.4512 21.9531L77.3262 11.1562" fill="#FFAD65"/>
<path d="M114.394 18.1143C114.394 18.1143 111.998 23.0309 116.915 30.4684L118.957 25.9111L115.118 14.3955" fill="#FFAD65"/>
<mask id="mask6_448_398" style="mask-type:luminance" maskUnits="userSpaceOnUse" x="76" y="0" width="47" height="25">
<path d="M76.769 0H122.102V24.9583H76.769V0Z" fill="white"/>
</mask>
<g mask="url(#mask6_448_398)">
<path d="M77.5659 15.5937C77.5659 15.5937 91.3628 13.9166 100.842 20.9948C111.639 29.151 121.472 22.0729 120.753 12.8333C119.915 3.23955 107.196 -3.13905e-05 94.7222 0.718718C84.644 1.31768 78.4097 5.75518 78.4097 5.75518L77.5659 15.5937Z" fill="#FFAD65"/>
</g>
<path d="M81.524 5.63579C81.524 5.63579 60.8938 5.03683 67.9719 32.7504L81.524 5.63579Z" fill="#FFAD65"/>
<path d="M77.3262 14.9948C77.3262 14.9948 78.8887 20.2708 72.7689 26.75L71.4512 21.9531L77.3262 11.1562" fill="black"/>
<path d="M114.394 18.1143C114.394 18.1143 111.998 23.0309 116.915 30.4684L118.957 25.9111L115.118 14.3955" fill="black"/>
<mask id="mask7_448_398" style="mask-type:luminance" maskUnits="userSpaceOnUse" x="76" y="0" width="47" height="25">
<path d="M76.769 0H122.102V24.9583H76.769V0Z" fill="white"/>
</mask>
<g mask="url(#mask7_448_398)">
<path d="M77.5659 15.5937C77.5659 15.5937 91.3628 13.9166 100.842 20.9948C111.639 29.151 121.472 22.0729 120.753 12.8333C119.915 3.23955 107.196 -3.13905e-05 94.7222 0.718718C84.644 1.31768 78.4097 5.75518 78.4097 5.75518L77.5659 15.5937Z" fill="black"/>
</g>
<path d="M81.524 5.63579C81.524 5.63579 60.8938 5.03683 67.9719 32.7504L81.524 5.63579Z" fill="black"/>
<path d="M61.8525 88.4115L100.842 152.833L113.556 89.7344L98.0817 86.2552L88.8421 95.1302L76.8473 84.8125L61.8525 88.4115Z" fill="white"/>
<path d="M106.477 208.974C106.238 208.974 106.118 208.854 105.998 208.614L100.363 152.953C100.363 152.713 100.483 152.474 100.722 152.474C100.962 152.474 101.201 152.593 101.201 152.833L106.837 208.494C106.957 208.734 106.717 208.974 106.477 208.974Z" fill="black"/>
<path d="M381.795 128.838L382.394 155.953L402.79 154.151L397.748 110.005L381.795 128.838Z" fill="#FFAD65"/>
<path d="M382.155 144.677L396.67 125.359L381.915 130.281L382.155 144.677Z" fill="black"/>
<path d="M375.555 81.6926C368.477 82.052 364.519 89.1301 363.201 95.6093C361.758 103.167 359.961 114.922 361.878 120.922C364.758 130.161 372.076 136.156 384.076 134C384.076 134 397.987 133.521 401.826 113.005C406.388 88.5312 390.55 80.9739 375.555 81.6926Z" fill="#FFAD65"/>
<path d="M366.441 105.808C366.201 106.646 365.357 107.125 364.519 106.886C363.68 106.646 363.201 105.808 363.441 104.969C363.68 104.125 364.519 103.646 365.357 103.886C366.201 104.006 366.68 104.969 366.441 105.808Z" fill="black"/>
<path d="M379.754 106.886C379.514 107.724 378.676 108.208 377.837 107.969C376.998 107.724 376.514 106.886 376.759 106.047C376.998 105.208 377.837 104.729 378.676 104.969C379.514 105.208 379.993 106.047 379.754 106.886Z" fill="black"/>
<path d="M369.8 114.203L368.118 113.724C367.758 113.604 367.519 113.365 367.279 113.125C367.159 112.766 367.04 112.406 367.159 112.167L368.717 107.724C368.837 107.484 369.076 107.365 369.196 107.484C369.441 107.604 369.561 107.844 369.441 107.969L367.878 112.406C367.878 112.526 367.878 112.646 367.878 112.766C367.878 112.886 367.998 113.005 368.118 113.005L369.8 113.484C370.04 113.604 370.159 113.724 370.04 113.964C370.279 114.083 370.04 114.203 369.8 114.203Z" fill="black"/>
<path d="M366.561 116.364L378.795 118.041C378.795 118.041 377.837 123.323 372.196 122.604C366.561 121.88 366.561 116.364 366.561 116.364Z" fill="black"/>
<mask id="mask8_448_398" style="mask-type:luminance" maskUnits="userSpaceOnUse" x="366" y="115" width="14" height="5">
<path d="M366.103 115.766H379.035V119.625H366.103V115.766Z" fill="white"/>
</mask>
<g mask="url(#mask8_448_398)">
<mask id="mask9_448_398" style="mask-type:luminance" maskUnits="userSpaceOnUse" x="366" y="116" width="13" height="7">
<path d="M366.561 116.365L378.795 118.042C378.795 118.042 377.837 123.323 372.196 122.604C366.561 121.88 366.561 116.365 366.561 116.365Z" fill="white"/>
</mask>
<g mask="url(#mask9_448_398)">
<path d="M365.478 117.922L379.394 119.604L379.634 117.323L365.842 115.042L365.478 117.922Z" fill="white"/>
</g>
</g>
<path d="M368.837 94.5317C368.837 94.5317 369.321 96.4484 366.92 96.5682C365.118 96.688 364.04 96.8077 362.962 97.0525C362.363 97.2921 361.759 96.9275 361.399 96.4484C361.16 95.9692 361.16 95.49 361.519 95.1307C362.123 94.2921 363.441 93.2088 365.603 92.9692C368.478 92.7296 368.837 94.5317 368.837 94.5317Z" fill="black"/>
<path d="M376.998 95.2497C376.998 95.2497 376.154 97.0518 379.034 97.6508C381.316 98.13 383.956 99.2081 385.154 99.6872C385.873 99.9268 386.712 99.807 387.191 99.3279C387.555 98.9685 387.555 98.3695 387.31 98.0102C386.592 97.1716 383.956 94.8904 381.196 94.2914C377.717 93.6925 376.998 95.2497 376.998 95.2497Z" fill="black"/>
<path d="M395.712 116.125L394.029 100.771C393.67 97.1723 394.993 94.4119 396.191 90.214C382.873 89.0108 367.279 87.4536 367.399 86.2556C367.399 86.2556 373.998 74.0161 396.79 77.8546C427.863 83.1358 413.227 120.563 399.071 126.922L395.712 116.125Z" fill="black"/>
<path d="M410.467 117.084C409.024 121.521 404.347 123.922 399.91 122.485C395.472 121.042 393.071 116.365 394.508 111.927C395.951 107.485 400.628 105.089 405.066 106.526C409.389 107.969 411.904 112.646 410.467 117.084Z" fill="#FFAD65"/>
<path d="M398.352 117.443C398.108 117.323 397.988 117.203 397.988 116.963C398.592 114.802 399.67 113.245 401.227 112.286C403.628 110.963 406.269 111.687 406.389 111.807C406.628 111.927 406.748 112.047 406.628 112.286C406.509 112.526 406.389 112.646 406.149 112.526C406.149 112.526 403.748 111.807 401.587 113.005C400.269 113.724 399.311 115.166 398.832 117.083C398.832 117.323 398.592 117.443 398.352 117.443Z" fill="black"/>
<path d="M449.936 243.526C449.936 244.604 449.936 245.683 449.936 246.646C449.576 263.318 447.774 279.756 446.576 296.308C445.253 305.907 441.535 308.907 438.66 309.745C438.54 309.985 438.295 310.344 438.175 310.584L431.821 320.302C431.342 321.261 430.139 321.74 429.061 321.261C428.342 320.901 427.378 320.063 428.342 317.901L427.503 320.183C427.019 321.261 425.701 321.74 424.623 321.141C423.66 320.662 423.18 319.344 423.66 317.901L422.821 319.464C422.222 320.662 420.785 321.021 419.581 320.422C418.503 319.823 418.264 318.5 418.623 317.422L419.581 315.141L419.701 314.901L418.024 317.302C417.305 318.5 415.743 318.86 414.545 318.021C413.467 317.302 413.107 315.985 413.587 314.782L419.222 300.745L416.222 299.308C415.144 298.828 414.545 297.631 414.665 296.427C414.904 295.229 415.863 294.271 417.066 294.271L433.977 293.912C429.66 259.479 426.061 225.052 422.941 190.5C422.821 182.584 429.42 176.104 437.097 176.104C437.337 176.104 437.576 176.104 437.936 176.104C445.134 176.584 445.253 184.745 446.696 191.823C449.936 208.375 450.055 225.651 449.936 243.526Z" fill="#FFAD65"/>
<path d="M419.102 315.864C418.863 315.745 418.863 315.625 418.863 315.505L422.342 307.463C422.342 307.344 422.582 307.224 422.701 307.344C422.821 307.344 422.941 307.583 422.821 307.703L419.342 315.745C419.342 315.864 419.222 315.864 419.102 315.864Z" fill="black"/>
<path d="M423.54 317.782C423.3 317.662 423.3 317.542 423.3 317.422L427.019 309.985C427.139 309.865 427.259 309.745 427.378 309.865C427.503 309.985 427.623 310.105 427.503 310.224L423.779 317.662C423.779 317.782 423.66 317.782 423.54 317.782Z" fill="black"/>
<path d="M427.863 318.859H427.743C427.623 318.739 427.623 318.619 427.623 318.5L430.857 312.265C430.977 312.146 431.102 312.146 431.222 312.146C431.342 312.146 431.342 312.385 431.342 312.505L428.102 318.739C427.982 318.859 427.982 318.859 427.863 318.859Z" fill="black"/>
<path d="M430.258 158.953C430.258 158.953 450.055 169.625 453.295 210.776L424.264 220.01L413.826 187.141L430.258 158.953Z" fill="#0D4FB1"/>
<path d="M315.456 345.136C315.217 345.136 314.977 344.896 314.977 344.656C314.977 344.417 315.217 320.063 314.977 302.308C314.738 284.433 320.732 276.755 320.972 276.516C321.092 276.276 321.451 276.276 321.571 276.396C321.811 276.516 321.811 276.875 321.691 276.995C321.571 277.115 315.696 284.672 315.936 302.308C316.175 320.063 315.936 344.417 315.936 344.656C315.936 344.896 315.696 345.136 315.456 345.136Z" fill="black"/>
<path d="M346.883 387.12C346.524 387.12 346.404 386.88 346.404 386.641L350.962 351.609C350.962 351.37 351.206 351.25 351.446 351.25C351.686 351.25 351.805 351.49 351.805 351.734L347.243 386.76C347.363 387 347.123 387.12 346.883 387.12Z" fill="black"/>
<path d="M424.983 220.25C424.743 220.25 424.623 220.13 424.503 219.89L420.665 186.422C420.665 186.182 420.785 185.942 421.024 185.942C421.264 185.942 421.503 186.062 421.503 186.302L425.342 219.771C425.462 220.01 425.342 220.13 424.983 220.25Z" fill="black"/>
<mask id="mask10_448_398" style="mask-type:luminance" maskUnits="userSpaceOnUse" x="79" y="26" width="18" height="21">
<path d="M96.7689 26.292H79.4355V46.292H96.7689V26.292Z" fill="white"/>
</mask>
<g mask="url(#mask10_448_398)">
<mask id="mask11_448_398" style="mask-type:luminance" maskUnits="userSpaceOnUse" x="80" y="27" width="16" height="20">
<path d="M80.769 27.6255H95.9305V46.2765H80.769V27.6255Z" fill="white"/>
</mask>
<g mask="url(#mask11_448_398)">
<path d="M89.3158 28.2707L96.0345 42.6666C96.0345 42.6666 92.196 47.4634 87.8783 45.9061L80.9199 31.8697C80.9199 31.8697 84.5189 26.9478 89.3158 28.2707Z" fill="white" fill-opacity="0.28"/>
</g>
</g>
<mask id="mask12_448_398" style="mask-type:luminance" maskUnits="userSpaceOnUse" x="100" y="30" width="19" height="22">
<path d="M118.102 30.292H100.769V51.6253H118.102V30.292Z" fill="white"/>
</mask>
<g mask="url(#mask12_448_398)">
<mask id="mask13_448_398" style="mask-type:luminance" maskUnits="userSpaceOnUse" x="101" y="31" width="17" height="20">
<path d="M101.685 31.6255H117.68V50.2922H101.685V31.6255Z" fill="white"/>
</mask>
<g mask="url(#mask13_448_398)">
<path d="M110.315 32.2712L117.034 46.667C117.034 46.667 113.195 51.4639 108.878 49.9066L101.919 35.8702C101.919 35.8702 105.518 30.9483 110.315 32.2712Z" fill="white" fill-opacity="0.28"/>
</g>
</g>
<path d="M87.1645 46.4273C86.8051 46.4273 86.5655 46.3075 86.2061 46.3075C81.0447 45.2242 77.6853 40.1877 78.7686 35.0263C79.2478 32.5107 80.6853 30.3492 82.8467 29.0315C85.003 27.5888 87.5238 27.1096 90.0447 27.5888C92.5603 28.0732 94.7217 29.5107 96.0395 31.6721C97.4822 33.8284 97.9613 36.3492 97.4822 38.87C97.003 41.3857 95.5603 43.5471 93.404 44.8648C91.602 46.068 89.4457 46.5471 87.1645 46.4273ZM89.0863 28.0732C87.0447 27.8336 85.003 28.3127 83.2061 29.5107C81.2842 30.8284 79.8467 32.87 79.3676 35.1513C78.4092 39.9482 81.5238 44.6252 86.3259 45.5836C88.602 46.068 91.003 45.5836 93.0447 44.2659C94.9613 42.9482 96.404 40.9065 96.8832 38.6252C97.3624 36.3492 96.8832 33.9482 95.5603 31.9117C94.2426 29.9898 92.2009 28.5523 89.9249 28.0732C89.6853 28.193 89.4457 28.0732 89.0863 28.0732Z" fill="white"/>
<path d="M108.399 50.7445C108.16 50.7445 107.8 50.6247 107.561 50.6247C102.399 49.5413 99.0398 44.5049 100.123 39.3486C100.602 36.8278 102.04 34.6663 104.201 33.3486C106.357 31.9111 108.878 31.432 111.399 31.9111C113.915 32.3903 116.076 33.8278 117.394 35.9893C118.717 38.1455 119.316 40.6663 118.837 43.1872C117.753 47.984 113.316 51.2236 108.399 50.7445ZM110.436 32.3903C108.399 32.1507 106.357 32.6299 104.561 33.8278C102.639 35.1507 101.201 37.1872 100.722 39.4684C99.7585 44.2653 102.878 48.9424 107.68 49.9059C112.477 50.8643 117.154 47.7445 118.113 42.9476C118.597 40.6663 118.113 38.2653 116.795 36.2288C115.477 34.307 113.436 32.8695 111.16 32.3903C110.92 32.5101 110.675 32.3903 110.436 32.3903Z" fill="white"/>
<path d="M100.243 39.5884C98.9199 38.505 97.3626 38.9894 97.3626 38.9894L97.123 38.3853C97.2428 38.3853 99.0397 37.7863 100.602 39.1092L100.243 39.5884Z" fill="white"/>
<path d="M286.186 435.224L295.899 433.427L304.779 434.744L299.378 436.666H289.425L286.186 435.224Z" fill="white"/>
<path d="M98.4408 55.9011C98.321 55.5417 98.0814 55.4219 97.7221 55.5417C96.8835 55.6615 96.0398 55.6615 95.321 55.4219C94.7221 55.1823 94.1231 54.823 93.8835 54.3438C93.5241 53.7448 92.4408 54.3438 92.8054 54.9428C93.2846 55.7813 94.0033 56.2605 94.9616 56.6198C95.92 56.9844 97.0033 56.8594 98.0814 56.7396C98.321 56.5 98.5606 56.1407 98.4408 55.9011Z" fill="black"/>
<path d="M68.5711 36.9482C68.2118 36.9482 67.9722 36.7087 67.9722 36.3493C67.9722 35.9899 68.2118 35.7503 68.5711 35.7503L79.0086 35.1514C79.368 35.1514 79.6076 35.391 79.6076 35.7503C79.6076 36.1097 79.368 36.3493 79.0086 36.3493L68.5711 36.9482Z" fill="white"/>
</svg>
